<svg width="24" height="24" viewBox="0 0 24 24" fill="none" xmlns="http://www.w3.org/2000/svg">
<g clip-path="url(#clip0_5233_67)">
<path d="M19.922 4H2.07776C0.916658 4 0 4.85555 0 5.93924V7.19404V7.82145V17.4606C0 18.5443 0.916658 19.3999 2.07776 19.3999H19.922C21.0831 19.3999 21.9998 18.5443 21.9998 17.4606V5.93924C21.9998 4.85555 21.0831 4 19.922 4ZM2.07776 5.31184H19.922C20.2887 5.31184 20.5942 5.59702 20.5942 5.93924V6.56664H1.34443V5.93924C1.34443 5.59702 1.71109 5.31184 2.07776 5.31184ZM19.922 18.1451H9.10547C9.53324 17.2895 9.96102 16.434 10.3277 15.5784C10.9388 14.3806 11.7332 13.2399 12.711 12.2133C12.9554 11.9851 13.4443 11.9281 13.5665 12.1562C13.6276 12.8407 13.811 13.2399 14.5443 13.354C15.8276 13.5251 17.3554 11.5288 15.7054 10.5022C15.3999 10.3881 15.0943 10.3311 14.7887 10.3311C12.8332 10.274 11.4888 12.6125 10.2666 14.1525C10.511 13.2969 10.7555 12.4414 10.8777 11.5288C10.9388 10.9585 10.6943 9.9318 8.86103 10.3881C7.45548 10.8444 6.23327 11.757 5.49995 13.0118C5.49995 13.0688 5.49995 13.1258 5.56106 13.1829C5.62217 13.2969 5.8055 13.2969 5.92772 13.2399C6.72216 12.7266 6.72216 12.2703 7.45548 11.9281C8.00548 11.6999 8.06659 12.2133 8.00548 12.3844C8.00548 12.6695 6.4166 17.0043 5.98883 18.1451H2.01665C1.64998 18.1451 1.34443 17.8599 1.34443 17.5176V8.50588H20.5942V17.5176C20.5942 17.8028 20.2887 18.1451 19.922 18.1451Z" fill="#34A853" stroke="#34A853" stroke-width="0.5"/>
</g>
<defs>
<clipPath id="clip0_5233_67">
<rect width="24" height="24" fill="white"/>
</clipPath>
</defs>
</svg>
