<svg width="14" height="14" viewBox="0 0 14 14" fill="none" xmlns="http://www.w3.org/2000/svg">
<path d="M14.0005 7C14.0005 8.85652 13.263 10.637 11.9502 11.9497C10.6375 13.2625 8.857 14 7.00049 14C5.14397 14 3.3635 13.2625 2.05074 11.9497C0.737986 10.637 0.000488281 8.85652 0.000488281 7C0.000488281 5.14348 0.737986 3.36301 2.05074 2.05025C3.3635 0.737498 5.14397 0 7.00049 0C8.857 0 10.6375 0.737498 11.9502 2.05025C13.263 3.36301 14.0005 5.14348 14.0005 7ZM10.5267 4.34875C10.4642 4.28647 10.3898 4.23743 10.3079 4.20456C10.226 4.1717 10.1384 4.15569 10.0501 4.15749C9.96193 4.15928 9.87498 4.17885 9.79449 4.21502C9.71401 4.25119 9.64165 4.30322 9.58174 4.368L6.54286 8.23987L4.71149 6.40762C4.58709 6.2917 4.42254 6.2286 4.25253 6.2316C4.08252 6.2346 3.92031 6.30347 3.80007 6.42371C3.67983 6.54394 3.61096 6.70615 3.60796 6.87617C3.60496 7.04618 3.66807 7.21072 3.78399 7.33513L6.09924 9.65125C6.16161 9.71351 6.23588 9.76257 6.31762 9.7955C6.39937 9.82843 6.4869 9.84456 6.57502 9.84293C6.66313 9.84129 6.75001 9.82193 6.83047 9.78599C6.91094 9.75005 6.98334 9.69828 7.04336 9.63375L10.5364 5.2675C10.6554 5.14369 10.7212 4.97812 10.7196 4.80634C10.718 4.63456 10.6482 4.47027 10.5267 4.34875Z" fill="#F89621"/>
</svg>
