<svg id="ico_verificado" data-name="ico verificado" xmlns="http://www.w3.org/2000/svg" width="17.478" height="17.478" viewBox="0 0 17.478 17.478">
  <path id="Caminho_2" data-name="Caminho 2" d="M203.365,258.3l2.028,1.171h2.342l1.171,2.028,2.028,1.171v2.342l1.171,2.028-1.171,2.028v2.342l-2.028,1.171-1.171,2.028h-2.342l-2.028,1.171-2.028-1.171H199l-1.171-2.028-2.028-1.171V269.07l-1.171-2.028,1.171-2.028v-2.342l2.028-1.171L199,259.474h2.342Z" transform="translate(-194.626 -258.303)" fill="#02c100"/>
  <path id="União_1" data-name="União 1" d="M-170.461,5.217a.5.5,0,0,1-.357-.146l-2.828-2.829a.5.5,0,0,1,0-.707l1.06-1.06a.5.5,0,0,1,.707,0l1.417,1.418,3.539-3.539a.5.5,0,0,1,.707,0l1.06,1.06a.5.5,0,0,1,0,.707l-4.949,4.95a.5.5,0,0,1-.354.146Z" transform="translate(178.139 7.027)" fill="#fff"/>
</svg>
