<svg width="13" height="13" viewBox="0 0 13 13" fill="none" xmlns="http://www.w3.org/2000/svg">
<path d="M12.9915 6.38208C12.9915 7.97338 12.3593 9.4995 11.2341 10.6247C10.1089 11.7499 8.58275 12.3821 6.99146 12.3821C5.40016 12.3821 3.87403 11.7499 2.74881 10.6247C1.6236 9.4995 0.991455 7.97338 0.991455 6.38208C0.991455 4.79078 1.6236 3.26466 2.74881 2.13944C3.87403 1.01422 5.40016 0.38208 6.99146 0.38208C8.58275 0.38208 10.1089 1.01422 11.2341 2.13944C12.3593 3.26466 12.9915 4.79078 12.9915 6.38208ZM10.014 4.10958C9.96038 4.05619 9.89659 4.01416 9.8264 3.98599C9.75621 3.95782 9.68106 3.9441 9.60545 3.94564C9.52983 3.94718 9.4553 3.96395 9.38632 3.99496C9.31733 4.02596 9.25531 4.07056 9.20395 4.12608L6.59921 7.44483L5.02945 5.87433C4.92282 5.77497 4.78179 5.72088 4.63606 5.72345C4.49034 5.72602 4.3513 5.78505 4.24824 5.88811C4.14518 5.99117 4.08615 6.13021 4.08357 6.27594C4.081 6.42166 4.13509 6.5627 4.23445 6.66933L6.21895 8.65458C6.27242 8.70794 6.33608 8.74999 6.40614 8.77822C6.47621 8.80645 6.55124 8.82027 6.62676 8.81887C6.70229 8.81747 6.77676 8.80088 6.84573 8.77007C6.9147 8.73927 6.97676 8.69489 7.0282 8.63958L10.0222 4.89708C10.1243 4.79095 10.1807 4.64904 10.1793 4.5018C10.1779 4.35456 10.118 4.21374 10.014 4.10958Z" fill="#C9327E"/>
</svg>
