<svg width="54" height="54" viewBox="0 0 54 54" fill="none" xmlns="http://www.w3.org/2000/svg">
<rect width="54" height="54" rx="10" fill="#F5F5F7"/>
<circle cx="27.4285" cy="27.4286" r="18" fill="white"/>
<path d="M19.9689 26.4112C19.9689 28.4546 25.0381 31.7477 25.7332 32.0743C26.3204 32.3512 26.3101 33.5743 26.2415 34.1786H24.9446V37.3852H34.1872V34.1786H32.8681C32.8792 33.5683 32.9075 31.7554 32.8621 31.5154C32.8184 31.2154 32.8081 24.0746 32.8621 22.2334C32.8809 21.6334 32.7815 21.3197 32.5432 21.2177C32.2004 21.0729 31.7949 21.4886 31.4392 21.8572C31.3484 21.9523 31.2678 22.0372 31.1975 22.0963C31.1514 22.1388 31.1118 22.1879 31.0801 22.242V20.8449H30.0515C29.9792 20.6005 29.8815 20.3644 29.7601 20.1403L30.4895 19.4109L29.0101 17.9323L28.2806 18.6617C28.0566 18.5402 27.8205 18.4425 27.5761 18.3703V17.3417H25.4846V18.3703C25.2401 18.4422 25.0039 18.5399 24.7801 18.6617L24.0498 17.9323L22.5712 19.4117L23.3006 20.1412C23.1796 20.3654 23.0819 20.6015 23.0092 20.8457H21.9806V21.0352C21.6378 20.0923 21.1004 19.3209 20.5964 19.2497C20.5477 19.2426 20.498 19.2467 20.4511 19.2615C20.4042 19.2763 20.3612 19.3016 20.3255 19.3354C19.8541 19.7554 19.8729 22.0294 19.9458 24.9592C19.9604 25.5394 19.9732 26.0409 19.9732 26.4103L19.9689 26.4112ZM33.8444 37.0389H25.2969V34.5274H33.8435L33.8444 37.0389ZM22.3278 21.1963H23.2792L23.3126 21.066C23.3905 20.7633 23.5105 20.473 23.6692 20.2037L23.7369 20.088L23.0649 19.4152L24.0524 18.4277L24.7261 19.1006L24.8418 19.032C25.1109 18.8729 25.4012 18.7529 25.7041 18.6754L25.8344 18.642V17.6906H27.2332V18.6412L27.3644 18.6746C27.6672 18.7525 27.9575 18.8728 28.2266 19.032L28.3432 19.0997L29.0152 18.4277L30.0035 19.4152L29.3306 20.088L29.4001 20.2037C29.5596 20.4723 29.6797 20.7624 29.7566 21.0652L29.7909 21.1963H30.7432V22.5934H29.7909L29.7566 22.7246C29.6792 23.0277 29.5591 23.3183 29.4001 23.5877L29.3315 23.7034L30.0044 24.3763L29.0161 25.3654L28.3432 24.6917L28.2275 24.7603C27.9586 24.9194 27.6686 25.0397 27.3661 25.1177L27.2349 25.1512V26.1026H25.8352V25.1486L25.7049 25.1152C25.4021 25.0371 25.1118 24.9168 24.8426 24.7577L24.7269 24.6892L24.0541 25.362L23.0666 24.3746L23.7395 23.7017L23.6709 23.586C23.5116 23.317 23.3916 23.0267 23.3144 22.7237L23.2809 22.5926H22.3295L22.3278 21.1963ZM22.3329 23.1952C22.3389 23.1094 22.3389 23.0237 22.3398 22.938H23.0126C23.0851 23.1827 23.183 23.4192 23.3049 23.6434L22.5755 24.3729L24.0541 25.8497L24.7844 25.1203C25.0084 25.2418 25.2445 25.3395 25.4889 25.4117V26.4403H27.5804V25.4117C27.8247 25.3392 28.0608 25.2416 28.2849 25.1203L29.0144 25.8497L30.4938 24.3703L29.7644 23.64C29.8862 23.416 29.9842 23.1799 30.0566 22.9354H30.8589C30.7512 23.6818 30.7059 24.4358 30.7235 25.1897C30.6032 25.763 30.3352 26.2948 29.9461 26.7326C29.7575 27.0034 29.5664 27.2786 29.3966 27.5632C27.5259 26.8714 25.5534 26.4949 23.5595 26.4489C23.146 26.0168 22.8244 25.5055 22.6142 24.9456C22.404 24.3858 22.3094 23.7891 22.3364 23.1917L22.3329 23.1952ZM29.1892 27.8554C28.5078 28.4417 26.1729 28.1872 25.7958 28.0929C25.0368 27.8681 24.363 27.4201 23.8621 26.8072C24.0952 26.8192 24.4209 26.8406 24.8092 26.8774C26.0643 26.9842 27.3043 27.2256 28.5078 27.5974C28.7409 27.6746 28.9689 27.7594 29.1935 27.8546L29.1892 27.8554ZM20.5544 19.5917C21.0549 19.662 21.8761 21.198 21.9884 22.6132V22.9363H22.0004C22.0004 23.0134 22.0004 23.0906 21.9944 23.166C21.8864 24.7012 22.5189 25.7683 23.5715 26.9974C24.1268 27.6832 24.8783 28.183 25.7255 28.4297C25.7572 28.4374 29.0032 28.9877 29.6255 27.8692C29.8131 27.5472 30.0171 27.2351 30.2366 26.934C30.674 26.443 30.9653 25.8394 31.0775 25.1914C31.0775 23.5226 31.2001 22.5686 31.4418 22.3569C31.5146 22.2926 31.6038 22.2 31.7041 22.0997C31.8515 21.948 32.3041 21.486 32.4232 21.5383C32.4232 21.5383 32.5492 21.5983 32.5312 22.224C32.4832 23.8132 32.4772 31.2592 32.5364 31.5806C32.5689 31.752 32.5544 33.1972 32.5364 34.1803H26.6041C26.6589 33.6386 26.7301 32.1549 25.8944 31.7614C25.0218 31.35 20.3289 28.1614 20.3289 26.4129C20.3289 26.0383 20.3161 25.5352 20.3024 24.9557C20.2638 23.4206 20.1729 19.824 20.5544 19.5994" fill="#C9327E"/>
<path d="M34.3938 37.5823H24.7578V33.9823H26.0718C26.1301 33.2392 26.0289 32.4266 25.6586 32.2526C25.2026 32.0357 19.7803 28.6637 19.7803 26.4112C19.7803 26.0315 19.7666 25.4897 19.7538 24.9643C19.6621 21.3266 19.7049 19.6295 20.1986 19.1889C20.2557 19.1363 20.3238 19.097 20.3979 19.0741C20.4721 19.0511 20.5504 19.0449 20.6272 19.056C21.2041 19.1417 21.7123 19.8857 22.0415 20.6503H22.8703C22.9249 20.4897 22.9899 20.3328 23.0649 20.1806L22.2986 19.4092L24.0558 17.658L24.8272 18.4295C24.9796 18.3542 25.1368 18.2892 25.2978 18.2349V17.1437H27.7835V18.228C27.9442 18.2826 28.1012 18.3479 28.2532 18.4235L29.0203 17.652L30.7783 19.4083L30.0112 20.1755C30.0861 20.3279 30.1508 20.4851 30.2049 20.646H31.2892V21.7389L31.3072 21.72C31.7092 21.3043 32.1643 20.8355 32.6306 21.0343C33.0481 21.2109 33.0849 21.7697 33.0703 22.2343C33.0163 24.03 33.0258 31.1529 33.0703 31.4829C33.1132 31.7032 33.0978 33.06 33.0823 33.9772H34.3963L34.3938 37.5823ZM25.5009 36.8417H33.6549V34.7237H25.5001L25.5009 36.8417ZM26.8166 33.9832H32.3401C32.3615 32.7412 32.3615 31.7392 32.3401 31.6157C32.2698 31.2506 32.2861 23.6992 32.3306 22.2172C32.338 22.0764 32.3326 21.9352 32.3143 21.7955C32.1471 21.9311 31.9896 22.0783 31.8429 22.236C31.7478 22.3337 31.6492 22.4349 31.5686 22.5069C31.4881 22.5789 31.2712 22.9406 31.2712 25.1932C31.1634 25.8828 30.8593 26.5267 30.3952 27.048C30.1795 27.3441 29.9792 27.651 29.7952 27.9677C29.0846 29.244 25.7075 28.632 25.6741 28.6235C24.7873 28.3666 24.0002 27.8451 23.4181 27.1286C22.3329 25.8635 21.6823 24.7577 21.7938 23.1557C21.7919 23.1366 21.7919 23.1174 21.7938 23.0983L21.7835 22.938V22.6166C21.7193 21.5847 21.3099 20.6045 20.6212 19.8335C20.4033 21.5257 20.3594 23.2357 20.4901 24.9369V24.9917C20.5038 25.5557 20.5158 26.0435 20.5158 26.4095C20.5158 27.9763 24.9129 31.0852 25.9681 31.5806C26.8123 31.9792 26.8561 33.2615 26.8081 33.9806L26.8166 33.9832ZM24.3489 27.0377C24.7641 27.4471 25.2764 27.7443 25.8378 27.9017C26.7892 28.0776 27.7654 28.071 28.7143 27.882C28.6234 27.8482 28.5316 27.8165 28.4392 27.7869C27.2499 27.4196 26.0246 27.1814 24.7843 27.0763C24.6399 27.0624 24.4953 27.0498 24.3506 27.0386L24.3489 27.0377ZM26.9923 26.6435C27.7854 26.796 28.5624 27.0221 29.3135 27.3189C29.4549 27.0909 29.6109 26.8663 29.7815 26.6229C30.1409 26.2134 30.3956 25.7228 30.5238 25.1932C30.5238 25.0106 30.5238 24.8135 30.5289 24.6146L29.0109 26.1326L28.2395 25.3612C28.0873 25.436 27.9304 25.501 27.7698 25.5557V26.6409L26.9923 26.6435ZM23.6495 26.2552C23.9392 26.2646 24.5375 26.2946 25.2866 26.3795V25.5583C25.1261 25.5036 24.9692 25.4386 24.8169 25.3637L24.0455 26.1309L22.7846 24.8692C23.0056 25.3693 23.2959 25.8359 23.6469 26.2552H23.6495ZM26.0246 25.9029H27.0283V24.996L27.3061 24.924C27.5916 24.8506 27.8654 24.7375 28.1195 24.588L28.3655 24.4406L29.0083 25.0835L29.7181 24.3729L29.0769 23.7317L29.2226 23.484C29.373 23.2304 29.4862 22.9564 29.5586 22.6706L29.6306 22.392H30.5392V21.3892H29.6306L29.5586 21.1106C29.4866 20.8256 29.3737 20.5525 29.2235 20.2997L29.0769 20.052L29.7181 19.41L29.0083 18.7003L28.3672 19.3415L28.1203 19.1957C27.8665 19.0457 27.5926 18.9326 27.3069 18.8597L27.0283 18.7877V17.8809H26.0246V18.7877L25.7469 18.8597C25.4613 18.9325 25.1874 19.0453 24.9335 19.1949L24.6866 19.3423L24.0438 18.7003L23.3341 19.4109L23.9752 20.052L23.8295 20.2997C23.6796 20.5533 23.5665 20.8269 23.4935 21.1123L23.4223 21.3909H22.5155V22.3946H23.4223L23.4935 22.6732C23.566 22.9579 23.6791 23.2307 23.8295 23.4832L23.9761 23.7309L23.3341 24.372L24.0446 25.0826L24.6858 24.4406L24.9326 24.5872C25.1867 24.7367 25.4605 24.8498 25.7461 24.9232L26.0238 24.9943L26.0246 25.9029ZM29.9966 23.6057L30.5358 24.1449C30.5503 23.796 30.5752 23.4472 30.6215 23.1352H30.1929C30.1388 23.2962 30.0737 23.4534 29.9983 23.6057H29.9966ZM22.5241 23.2072C22.5019 23.5051 22.5154 23.8047 22.5643 24.0995L23.0572 23.6066C22.982 23.4542 22.917 23.297 22.8626 23.136H22.5275C22.5293 23.1594 22.5293 23.1829 22.5275 23.2063L22.5241 23.2072ZM31.0063 22.7417H31.0449C31.0543 22.7023 31.0646 22.6663 31.0741 22.6337L31.0063 22.7417ZM22.0389 21.7783C22.0758 21.9275 22.1058 22.0775 22.1298 22.2275V22.0295L22.0389 21.7783Z" fill="#C9327E"/>
<path d="M26.4961 24.0969C26.0604 24.0967 25.6346 23.9674 25.2725 23.7252C24.9103 23.483 24.6281 23.1389 24.4615 22.7364C24.2949 22.3339 24.2514 21.891 24.3365 21.4637C24.4216 21.0365 24.6315 20.644 24.9396 20.3361C25.2477 20.0281 25.6402 19.8183 26.0675 19.7334C26.4948 19.6485 26.9377 19.6922 27.3401 19.8589C27.7426 20.0257 28.0866 20.308 28.3286 20.6703C28.5706 21.0325 28.6998 21.4584 28.6998 21.894C28.6996 22.4783 28.4673 23.0386 28.054 23.4517C27.6408 23.8648 27.0804 24.0969 26.4961 24.0969ZM26.4961 20.4317C26.2065 20.4317 25.9235 20.5176 25.6827 20.6785C25.442 20.8393 25.2543 21.068 25.1435 21.3355C25.0327 21.603 25.0037 21.8973 25.0602 22.1813C25.1167 22.4653 25.2561 22.7262 25.4609 22.9309C25.6656 23.1357 25.9265 23.2751 26.2105 23.3316C26.4945 23.3881 26.7888 23.3591 27.0563 23.2483C27.3238 23.1375 27.5525 22.9498 27.7134 22.7091C27.8742 22.4683 27.9601 22.1853 27.9601 21.8957C27.9601 21.5074 27.8058 21.1351 27.5313 20.8605C27.2567 20.586 26.8844 20.4317 26.4961 20.4317Z" fill="#C9327E"/>
</svg>
