<svg width="54" height="54" viewBox="0 0 54 54" fill="none" xmlns="http://www.w3.org/2000/svg">
<rect width="54" height="54" rx="10" fill="#F5F5F7"/>
<circle cx="27.4287" cy="27.4286" r="18" fill="white"/>
<path d="M27.3951 21.5337C27.038 21.5335 26.6844 21.6036 26.3544 21.7402C26.0244 21.8767 25.7246 22.077 25.4721 22.3295C25.2196 22.582 25.0193 22.8819 24.8828 23.2118C24.7462 23.5418 24.676 23.8954 24.6763 24.2525C24.672 24.6108 24.7394 24.9662 24.8746 25.298C25.0097 25.6298 25.2098 25.9312 25.4631 26.1845C25.7164 26.4379 26.0179 26.638 26.3497 26.7731C26.6814 26.9082 27.0369 26.9757 27.3951 26.9714C27.7562 26.9778 28.1149 26.9122 28.4503 26.7785C28.7857 26.6448 29.0912 26.4456 29.3488 26.1925C29.6064 25.9394 29.811 25.6376 29.9506 25.3046C30.0903 24.9716 30.1623 24.6141 30.1623 24.253C30.1623 23.8919 30.0903 23.5344 29.9506 23.2014C29.811 22.8684 29.6064 22.5665 29.3488 22.3135C29.0912 22.0604 28.7857 21.8612 28.4503 21.7274C28.1149 21.5937 27.7562 21.5273 27.3951 21.5337ZM27.3951 26.0174C27.1632 26.018 26.9335 25.9727 26.7191 25.8842C26.5047 25.7957 26.3099 25.6657 26.1459 25.5018C25.9819 25.3378 25.8519 25.143 25.7635 24.9286C25.675 24.7142 25.6297 24.4845 25.6303 24.2525C25.6257 24.0195 25.6683 23.788 25.7554 23.5718C25.8424 23.3557 25.9723 23.1593 26.1371 22.9945C26.3019 22.8297 26.4982 22.6999 26.7144 22.6128C26.9306 22.5257 27.1621 22.4831 27.3951 22.4877C27.8632 22.4877 28.3121 22.6736 28.6431 23.0046C28.974 23.3356 29.16 23.7845 29.16 24.2525C29.16 24.7206 28.974 25.1695 28.6431 25.5005C28.3121 25.8315 27.8632 26.0174 27.3951 26.0174Z" fill="#12B3B0"/>
<path d="M31.8789 24.2525C31.3711 21.5604 30.4712 18.9572 29.208 16.5263C29.0349 16.1952 28.7745 15.9179 28.455 15.7244C28.1355 15.5309 27.7691 15.4286 27.3956 15.4286C27.022 15.4286 26.6556 15.5309 26.3361 15.7244C26.0166 15.9179 25.7562 16.1952 25.5831 16.5263C24.3408 18.9662 23.442 21.5663 22.9123 24.2525C21.5332 24.5309 20.2921 25.2756 19.3975 26.3615C18.5029 27.4473 18.0094 28.808 18 30.2148V30.31C18.0021 30.6577 18.1011 30.998 18.2858 31.2926C18.4704 31.5873 18.7335 31.8247 19.0455 31.9782C19.3575 32.1317 19.7062 32.1953 20.0523 32.1618C20.3984 32.1283 20.7284 31.999 21.0051 31.7885C21.4388 31.4604 21.9216 31.2029 22.4357 31.0257V31.5983C22.4384 31.6959 22.4722 31.7901 22.5322 31.8672C22.5921 31.9443 22.6752 32.0002 22.7691 32.0268L27.252 33.6485C27.3 33.6485 27.3471 33.6965 27.3951 33.6965C27.4211 33.7 27.4475 33.6975 27.4723 33.6891C27.4971 33.6808 27.5197 33.6669 27.5383 33.6485L32.0211 32.0268C32.1153 32.0004 32.1985 31.9445 32.2586 31.8674C32.3188 31.7903 32.3527 31.696 32.3554 31.5983V31.0257C32.8696 31.2029 33.3524 31.4603 33.786 31.7885C34.0628 31.999 34.3927 32.1283 34.7389 32.1618C35.085 32.1953 35.4336 32.1317 35.7456 31.9782C36.0576 31.8247 36.3207 31.5873 36.5054 31.2926C36.6901 30.998 36.789 30.6577 36.7911 30.31V30.2148C36.7817 28.808 36.2883 27.4473 35.3937 26.3615C34.4991 25.2756 33.2579 24.5309 31.8789 24.2525ZM22.4357 29.404V29.9765C21.7041 30.1637 21.0211 30.5054 20.4326 30.9785C20.2866 31.1037 20.1002 31.1716 19.908 31.1697C19.6646 31.1649 19.4318 31.0694 19.2553 30.9017C19.0787 30.7341 18.9713 30.5065 18.954 30.2637V30.2157C18.9673 29.0993 19.3419 28.0172 20.0218 27.1316C20.7018 26.246 21.6503 25.6046 22.7254 25.3034C22.626 26.0654 22.4357 28.8794 22.4357 29.404ZM31.4023 31.216L27.396 32.6945L23.3897 31.216C23.3468 29.5601 23.4106 27.9033 23.5809 26.2557V26.2077C23.9631 22.9963 24.9161 19.879 26.3949 17.0028C26.4919 16.82 26.6359 16.6662 26.8119 16.5573C26.988 16.4484 27.1899 16.3883 27.3969 16.3831C27.5927 16.3836 27.7849 16.437 27.9528 16.5378C28.1208 16.6386 28.2583 16.783 28.3509 16.9557C30.9737 20.6757 31.4031 30.358 31.4031 30.358L31.4023 31.216ZM35.838 30.262C35.8368 30.3847 35.811 30.506 35.7621 30.6185C35.7131 30.7311 35.642 30.8326 35.553 30.9171C35.464 31.0017 35.3589 31.0674 35.244 31.1105C35.1291 31.1536 35.0066 31.1731 34.884 31.168C34.7882 31.1728 34.6924 31.1584 34.6023 31.1256C34.5122 31.0928 34.4296 31.0422 34.3594 30.9768C33.7652 30.5127 33.0841 30.172 32.3563 29.9748C32.362 28.3963 32.2664 26.8191 32.07 25.2528C33.1462 25.552 34.0961 26.1929 34.7763 27.079C35.4566 27.965 35.8304 29.0481 35.8414 30.1651L35.838 30.262ZM27.396 34.936C27.3324 34.9321 27.2686 34.9418 27.209 34.9643C27.1494 34.9869 27.0952 35.0219 27.0501 35.0669C27.005 35.1119 26.97 35.166 26.9473 35.2256C26.9246 35.2852 26.9148 35.3489 26.9186 35.4125V37.8451C26.9186 37.9716 26.9688 38.0929 27.0583 38.1824C27.1477 38.2719 27.2691 38.3221 27.3956 38.3221C27.5221 38.3221 27.6434 38.2719 27.7329 38.1824C27.8223 38.0929 27.8726 37.9716 27.8726 37.8451V35.4134C27.8764 35.3498 27.8668 35.286 27.8442 35.2264C27.8216 35.1668 27.7867 35.1126 27.7416 35.0675C27.6966 35.0224 27.6425 34.9874 27.5829 34.9647C27.5233 34.942 27.4596 34.9322 27.396 34.936ZM30.4483 33.3623C30.3847 33.3585 30.3211 33.3683 30.2616 33.3909C30.2021 33.4135 30.148 33.4485 30.103 33.4935C30.058 33.5386 30.023 33.5926 30.0004 33.6521C29.9777 33.7116 29.968 33.7753 29.9717 33.8388V36.2714C29.9717 36.3979 30.022 36.5192 30.1114 36.6087C30.2009 36.6981 30.3222 36.7484 30.4487 36.7484C30.5752 36.7484 30.6965 36.6981 30.786 36.6087C30.8755 36.5192 30.9257 36.3979 30.9257 36.2714V33.8397C30.9296 33.776 30.9199 33.7122 30.8973 33.6525C30.8747 33.5928 30.8396 33.5386 30.7945 33.4935C30.7494 33.4483 30.6952 33.4133 30.6355 33.3907C30.5758 33.3681 30.512 33.3584 30.4483 33.3623ZM24.3446 33.3623C24.2809 33.3584 24.2172 33.3681 24.1576 33.3906C24.098 33.4132 24.0438 33.4482 23.9987 33.4932C23.9536 33.5382 23.9185 33.5923 23.8959 33.6519C23.8732 33.7115 23.8634 33.7752 23.8671 33.8388V36.2714C23.8671 36.3979 23.9174 36.5192 24.0069 36.6087C24.0963 36.6981 24.2176 36.7484 24.3441 36.7484C24.4707 36.7484 24.592 36.6981 24.6814 36.6087C24.7709 36.5192 24.8211 36.3979 24.8211 36.2714V33.8397C24.8209 33.7133 24.7707 33.5921 24.6814 33.5026C24.5921 33.4132 24.471 33.3627 24.3446 33.3623Z" fill="#12B3B0"/>
</svg>
