<svg width="333" height="87" viewBox="0 0 333 87" fill="none" xmlns="http://www.w3.org/2000/svg">
<path d="M7.116 37H2.892L8.612 9.984H4.608L5.444 6.2H17.676L16.884 9.984H12.88L7.116 37ZM22.8154 37H13.0034L19.5594 6.2H29.2394L28.4034 9.984H23.1234L21.3634 18.564H25.3234L24.5314 22.348H20.5274L18.1954 33.216H23.6514L22.8154 37ZM28.5608 37H24.7768L31.3328 6.2H35.6008L36.1728 16.672L36.3048 21.512H36.6568L37.6688 15.22L39.6928 6.2H43.4328L36.8768 37H35.4688L33.7088 20.06L33.3128 15H32.9608L31.8608 21.556L28.5608 37ZM44.087 37H39.687L46.243 6.2H50.643L48.003 18.608H51.215L53.855 6.2H58.255L51.699 37H47.299L50.423 22.392H47.211L44.087 37ZM57.9432 37H53.4552L63.5752 6.2H69.2512L66.3472 37H61.8592L63.0032 29.52H59.9672L57.9432 37ZM64.7632 13.284L60.9352 25.78H63.6192L65.1592 13.284H64.7632ZM83.4873 37H73.6753L80.2313 6.2H89.9113L89.0753 9.984H83.7953L82.0353 18.564H85.9953L85.2033 22.348H81.1993L78.8673 33.216H84.3233L83.4873 37ZM89.2265 37H84.6945L91.3385 20.5V6.2H95.8265L95.3425 15.616L95.1225 18.212H95.4745L96.2225 15.616L99.9625 6.2H104.495L98.1585 20.94L98.0265 37H93.5385L94.2865 25.78L94.5505 23.052H94.1545L93.3625 25.78L89.2265 37ZM99.8003 37L106.356 6.2H112.032C113.499 6.2 114.687 6.62533 115.596 7.476C116.535 8.29733 117.004 9.5 117.004 11.084C117.004 11.5827 116.931 12.228 116.784 13.02L115.068 20.984C114.716 22.6267 114.1 23.8147 113.22 24.548C112.34 25.2813 111.108 25.648 109.524 25.648H106.62L104.2 37H99.8003ZM109.084 21.864C110.052 21.864 110.624 21.38 110.8 20.412L112.56 12.184C112.619 11.832 112.648 11.5973 112.648 11.48C112.648 10.9813 112.502 10.6147 112.208 10.38C111.944 10.116 111.592 9.984 111.152 9.984H109.92L107.456 21.864H109.084ZM120.623 37.572C118.98 37.572 117.602 37.1173 116.487 36.208C115.402 35.2987 114.859 34.008 114.859 32.336C114.859 31.72 114.918 31.1627 115.035 30.664L119.259 10.82C119.611 9.148 120.3 7.872 121.327 6.992C122.354 6.08266 123.688 5.628 125.331 5.628C126.944 5.628 128.294 6.08266 129.379 6.992C130.494 7.90133 131.051 9.17733 131.051 10.82C131.051 11.4067 130.992 11.9787 130.875 12.536L126.695 32.38C126.314 34.052 125.61 35.3427 124.583 36.252C123.586 37.132 122.266 37.572 120.623 37.572ZM120.667 33.788C121.518 33.788 122.06 33.304 122.295 32.336L126.739 11.48C126.768 11.3627 126.783 11.1867 126.783 10.952C126.783 10.4533 126.636 10.072 126.343 9.808C126.079 9.544 125.727 9.412 125.287 9.412C124.407 9.412 123.85 9.896 123.615 10.864L119.215 31.72C119.156 32.0133 119.127 32.204 119.127 32.292C119.127 32.7613 119.274 33.128 119.567 33.392C119.86 33.656 120.227 33.788 120.667 33.788ZM134.629 37.572C132.986 37.572 131.607 37.1173 130.493 36.208C129.407 35.2987 128.865 34.008 128.865 32.336C128.865 31.72 128.923 31.1627 129.041 30.664L130.053 25.824L134.585 25.12L133.221 31.72C133.162 32.0133 133.133 32.204 133.133 32.292C133.133 32.7613 133.279 33.128 133.573 33.392C133.866 33.656 134.233 33.788 134.673 33.788C135.553 33.788 136.11 33.304 136.345 32.336L137.049 28.816C137.195 28.024 137.269 27.3933 137.269 26.924C137.269 26.0733 137.122 25.296 136.829 24.592C136.565 23.888 136.154 23.0667 135.597 22.128C134.658 20.6027 133.954 19.2973 133.485 18.212C133.045 17.0973 132.825 15.8947 132.825 14.604C132.825 13.8413 132.913 13.0493 133.089 12.228L133.353 10.776C133.675 9.13333 134.35 7.872 135.377 6.992C136.403 6.08266 137.738 5.628 139.381 5.628C140.965 5.628 142.299 6.08266 143.385 6.992C144.499 7.872 145.057 9.13333 145.057 10.776C145.057 11.3333 144.998 11.8907 144.881 12.448L144.221 15.396L139.733 16.1L140.745 11.348C140.774 11.2307 140.789 11.0547 140.789 10.82C140.789 10.3507 140.642 9.99867 140.349 9.764C140.085 9.52933 139.747 9.412 139.337 9.412C138.486 9.412 137.958 9.88133 137.753 10.82L137.401 12.536C137.283 13.1227 137.225 13.7387 137.225 14.384C137.225 15.2347 137.342 16.012 137.577 16.716C137.841 17.3907 138.251 18.2267 138.809 19.224C139.777 20.8373 140.481 22.2013 140.921 23.316C141.39 24.4307 141.625 25.648 141.625 26.968C141.625 27.7013 141.537 28.4933 141.361 29.344L140.701 32.38C140.319 34.052 139.615 35.3427 138.589 36.252C137.591 37.132 136.271 37.572 134.629 37.572ZM146.398 37H141.91L148.466 6.2H152.954L146.398 37ZM160.478 5.628C162.062 5.628 163.397 6.08266 164.482 6.992C165.568 7.872 166.11 9.13333 166.11 10.776C166.11 11.392 166.052 11.9493 165.934 12.448L165.098 16.54L160.566 17.2L161.798 11.348L161.886 10.82C161.886 10.3507 161.74 9.99867 161.446 9.764C161.182 9.52933 160.845 9.412 160.434 9.412C159.584 9.412 159.056 9.88133 158.85 10.82L154.406 31.72C154.348 32.0133 154.318 32.204 154.318 32.292C154.318 32.7613 154.465 33.128 154.758 33.392C155.052 33.656 155.418 33.788 155.858 33.788C156.709 33.788 157.252 33.304 157.486 32.336L159.246 23.932L163.47 24.9L161.842 32.38C161.49 34.052 160.801 35.3427 159.774 36.252C158.777 37.132 157.442 37.572 155.77 37.572H155.726L155.418 38.232C156.122 38.408 156.665 38.7307 157.046 39.2C157.457 39.6693 157.662 40.256 157.662 40.96C157.662 41.928 157.31 42.676 156.606 43.204C155.902 43.732 154.92 43.996 153.658 43.996C152.837 43.996 152.236 43.8787 151.854 43.644L151.458 41.356C151.957 41.62 152.573 41.752 153.306 41.752C154.392 41.752 154.934 41.4733 154.934 40.916C154.934 40.6227 154.744 40.4027 154.362 40.256C154.01 40.1093 153.35 40.036 152.382 40.036V39.684L153.614 37.264C152.558 36.912 151.693 36.3107 151.018 35.46C150.373 34.6093 150.05 33.5533 150.05 32.292C150.05 31.7053 150.109 31.1627 150.226 30.664L154.45 10.776C154.802 9.104 155.477 7.828 156.474 6.948C157.501 6.068 158.836 5.628 160.478 5.628ZM166.611 37H162.123L172.243 6.2H177.919L175.015 37H170.527L171.671 29.52H168.635L166.611 37ZM173.431 13.284L169.603 25.78H172.287L173.827 13.284H173.431ZM177.699 4.572C177.23 4.572 176.849 4.528 176.555 4.44C176.262 4.32267 175.881 4.14667 175.411 3.912C174.766 3.53066 174.135 3.34 173.519 3.34C173.021 3.34 172.566 3.45733 172.155 3.692C171.745 3.89733 171.407 4.14666 171.143 4.44L171.803 1.272C172.067 1.008 172.405 0.787999 172.815 0.611999C173.226 0.406665 173.681 0.303998 174.179 0.303998C174.619 0.303998 174.986 0.362665 175.279 0.479998C175.602 0.567999 175.969 0.714665 176.379 0.919998C176.731 1.096 177.039 1.228 177.303 1.316C177.567 1.404 177.89 1.448 178.271 1.448C179.151 1.448 179.943 1.12533 180.647 0.479998L179.943 3.604C179.357 4.24933 178.609 4.572 177.699 4.572ZM183.057 37.572C181.414 37.572 180.035 37.1173 178.921 36.208C177.835 35.2987 177.293 34.008 177.293 32.336C177.293 31.72 177.351 31.1627 177.469 30.664L181.693 10.82C182.045 9.148 182.734 7.872 183.761 6.992C184.787 6.08266 186.122 5.628 187.765 5.628C189.378 5.628 190.727 6.08266 191.813 6.992C192.927 7.90133 193.485 9.17733 193.485 10.82C193.485 11.4067 193.426 11.9787 193.309 12.536L189.129 32.38C188.747 34.052 188.043 35.3427 187.017 36.252C186.019 37.132 184.699 37.572 183.057 37.572ZM183.101 33.788C183.951 33.788 184.494 33.304 184.729 32.336L189.173 11.48C189.202 11.3627 189.217 11.1867 189.217 10.952C189.217 10.4533 189.07 10.072 188.777 9.808C188.513 9.544 188.161 9.412 187.721 9.412C186.841 9.412 186.283 9.896 186.049 10.864L181.649 31.72C181.59 32.0133 181.561 32.204 181.561 32.292C181.561 32.7613 181.707 33.128 182.001 33.392C182.294 33.656 182.661 33.788 183.101 33.788ZM206.034 37H196.222L202.778 6.2H212.458L211.622 9.984H206.342L204.582 18.564H208.542L207.75 22.348H203.746L201.414 33.216H206.87L206.034 37ZM211.692 37H207.908L215.124 6.2H220.184L219.172 18.608L218.512 24.68H218.864L220.756 18.608L224.98 6.2H230.04L224.144 37H220.404L223.264 21.864L224.628 16.056H224.276L222.34 21.864L216.884 37H215.3L216.224 21.864L216.752 16.056H216.356L215.3 21.864L211.692 37ZM239.044 37.572C237.43 37.572 236.066 37.1173 234.952 36.208C233.866 35.2987 233.324 34.008 233.324 32.336C233.324 31.72 233.382 31.1627 233.5 30.664L237.724 10.776C238.076 9.104 238.75 7.828 239.748 6.948C240.774 6.068 242.109 5.628 243.752 5.628C245.336 5.628 246.67 6.08266 247.756 6.992C248.841 7.872 249.384 9.13333 249.384 10.776C249.384 11.392 249.325 11.9493 249.208 12.448L248.372 16.54L243.84 17.2L245.072 11.348L245.16 10.82C245.16 10.3507 245.013 9.99867 244.72 9.764C244.456 9.52933 244.118 9.412 243.708 9.412C242.857 9.412 242.329 9.88133 242.124 10.82L237.68 31.72C237.621 32.0133 237.592 32.204 237.592 32.292C237.592 32.7613 237.738 33.128 238.032 33.392C238.325 33.656 238.692 33.788 239.132 33.788C239.982 33.788 240.525 33.304 240.76 32.336L242.52 23.932L246.744 24.9L245.116 32.38C244.764 34.052 244.074 35.3427 243.048 36.252C242.05 37.132 240.716 37.572 239.044 37.572ZM246.41 37L252.966 6.2H258.642C260.108 6.2 261.296 6.62533 262.206 7.476C263.144 8.29733 263.614 9.5 263.614 11.084C263.614 11.5827 263.54 12.228 263.394 13.02L262.118 19.048C261.648 21.3067 260.607 22.7147 258.994 23.272L258.642 37H254.286L254.902 23.712H253.67L250.81 37H246.41ZM256.134 19.884C256.632 19.884 257.014 19.7667 257.278 19.532C257.542 19.2973 257.732 18.9453 257.85 18.476L259.17 12.184C259.228 11.832 259.258 11.5973 259.258 11.48C259.258 10.9813 259.111 10.6147 258.818 10.38C258.554 10.116 258.202 9.984 257.762 9.984H256.53L254.506 19.884H256.134ZM265.163 37H260.675L267.231 6.2H271.719L265.163 37ZM267.98 37L274.536 6.2H280.212C281.679 6.2 282.867 6.62533 283.776 7.476C284.715 8.29733 285.184 9.5 285.184 11.084C285.184 11.5827 285.111 12.228 284.964 13.02L283.248 20.984C282.896 22.6267 282.28 23.8147 281.4 24.548C280.52 25.2813 279.288 25.648 277.704 25.648H274.8L272.38 37H267.98ZM277.264 21.864C278.232 21.864 278.804 21.38 278.98 20.412L280.74 12.184C280.799 11.832 280.828 11.5973 280.828 11.48C280.828 10.9813 280.681 10.6147 280.388 10.38C280.124 10.116 279.772 9.984 279.332 9.984H278.1L275.636 21.864H277.264ZM288.862 37H284.638L290.358 9.984H286.354L287.19 6.2H299.422L298.63 9.984H294.626L288.862 37ZM300.963 37.572C299.32 37.572 297.941 37.1173 296.827 36.208C295.741 35.2987 295.199 34.008 295.199 32.336C295.199 31.72 295.257 31.1627 295.375 30.664L299.599 10.82C299.951 9.148 300.64 7.872 301.667 6.992C302.693 6.08266 304.028 5.628 305.671 5.628C307.284 5.628 308.633 6.08266 309.719 6.992C310.833 7.90133 311.391 9.17733 311.391 10.82C311.391 11.4067 311.332 11.9787 311.215 12.536L307.035 32.38C306.653 34.052 305.949 35.3427 304.923 36.252C303.925 37.132 302.605 37.572 300.963 37.572ZM301.007 33.788C301.857 33.788 302.4 33.304 302.635 32.336L307.079 11.48C307.108 11.3627 307.123 11.1867 307.123 10.952C307.123 10.4533 306.976 10.072 306.683 9.808C306.419 9.544 306.067 9.412 305.627 9.412C304.747 9.412 304.189 9.896 303.955 10.864L299.555 31.72C299.496 32.0133 299.467 32.204 299.467 32.292C299.467 32.7613 299.613 33.128 299.907 33.392C300.2 33.656 300.567 33.788 301.007 33.788ZM6.368 86.572C4.75467 86.572 3.39067 86.1173 2.276 85.208C1.19067 84.2987 0.648 83.008 0.648 81.336C0.648 80.72 0.706667 80.1627 0.824 79.664L5.048 59.776C5.4 58.104 6.07467 56.828 7.072 55.948C8.09867 55.068 9.43333 54.628 11.076 54.628C12.66 54.628 13.9947 55.0827 15.08 55.992C16.1653 56.872 16.708 58.1333 16.708 59.776C16.708 60.392 16.6493 60.9493 16.532 61.448L15.696 65.54L11.164 66.2L12.396 60.348L12.484 59.82C12.484 59.3507 12.3373 58.9987 12.044 58.764C11.78 58.5293 11.4427 58.412 11.032 58.412C10.1813 58.412 9.65333 58.8813 9.448 59.82L5.004 80.72C4.94533 81.0133 4.916 81.204 4.916 81.292C4.916 81.7613 5.06267 82.128 5.356 82.392C5.64933 82.656 6.016 82.788 6.456 82.788C7.30667 82.788 7.84933 82.304 8.084 81.336L9.844 72.932L14.068 73.9L12.44 81.38C12.088 83.052 11.3987 84.3427 10.372 85.252C9.37467 86.132 8.04 86.572 6.368 86.572ZM20.3768 86.572C18.7342 86.572 17.3555 86.1173 16.2408 85.208C15.1555 84.2987 14.6128 83.008 14.6128 81.336C14.6128 80.72 14.6715 80.1627 14.7888 79.664L19.0128 59.82C19.3648 58.148 20.0542 56.872 21.0808 55.992C22.1075 55.0827 23.4422 54.628 25.0848 54.628C26.6982 54.628 28.0475 55.0827 29.1328 55.992C30.2475 56.9013 30.8048 58.1773 30.8048 59.82C30.8048 60.4067 30.7462 60.9787 30.6288 61.536L26.4488 81.38C26.0675 83.052 25.3635 84.3427 24.3368 85.252C23.3395 86.132 22.0195 86.572 20.3768 86.572ZM20.4208 82.788C21.2715 82.788 21.8142 82.304 22.0488 81.336L26.4928 60.48C26.5222 60.3627 26.5368 60.1867 26.5368 59.952C26.5368 59.4533 26.3902 59.072 26.0968 58.808C25.8328 58.544 25.4808 58.412 25.0408 58.412C24.1608 58.412 23.6035 58.896 23.3688 59.864L18.9688 80.72C18.9102 81.0133 18.8808 81.204 18.8808 81.292C18.8808 81.7613 19.0275 82.128 19.3208 82.392C19.6142 82.656 19.9808 82.788 20.4208 82.788ZM31.3518 86H27.5677L34.7838 55.2H39.8438L38.8318 67.608L38.1718 73.68H38.5238L40.4158 67.608L44.6398 55.2H49.6998L43.8038 86H40.0638L42.9238 70.864L44.2878 65.056H43.9358L41.9998 70.864L36.5438 86H34.9598L35.8838 70.864L36.4118 65.056H36.0158L34.9598 70.864L31.3518 86ZM58.7479 86.572C57.1053 86.572 55.7266 86.1173 54.6119 85.208C53.5266 84.2987 52.9839 83.008 52.9839 81.336C52.9839 80.72 53.0426 80.1627 53.1599 79.664L57.3839 59.82C57.7359 58.148 58.4253 56.872 59.4519 55.992C60.4786 55.0827 61.8133 54.628 63.4559 54.628C65.0693 54.628 66.4186 55.0827 67.5039 55.992C68.6186 56.9013 69.1759 58.1773 69.1759 59.82C69.1759 60.4067 69.1173 60.9787 68.9999 61.536L64.8199 81.38C64.4386 83.052 63.7346 84.3427 62.7079 85.252C61.7106 86.132 60.3906 86.572 58.7479 86.572ZM58.7919 82.788C59.6426 82.788 60.1853 82.304 60.4199 81.336L64.8639 60.48C64.8933 60.3627 64.9079 60.1867 64.9079 59.952C64.9079 59.4533 64.7613 59.072 64.4679 58.808C64.2039 58.544 63.8519 58.412 63.4119 58.412C62.5319 58.412 61.9746 58.896 61.7399 59.864L57.3399 80.72C57.2813 81.0133 57.2519 81.204 57.2519 81.292C57.2519 81.7613 57.3986 82.128 57.6919 82.392C57.9853 82.656 58.3519 82.788 58.7919 82.788ZM72.7537 86.572C71.111 86.572 69.7324 86.1173 68.6177 85.208C67.5324 84.2987 66.9897 83.008 66.9897 81.336C66.9897 80.72 67.0484 80.1627 67.1657 79.664L68.1777 74.824L72.7097 74.12L71.3457 80.72C71.287 81.0133 71.2577 81.204 71.2577 81.292C71.2577 81.7613 71.4044 82.128 71.6977 82.392C71.991 82.656 72.3577 82.788 72.7977 82.788C73.6777 82.788 74.235 82.304 74.4697 81.336L75.1737 77.816C75.3204 77.024 75.3937 76.3933 75.3937 75.924C75.3937 75.0733 75.247 74.296 74.9537 73.592C74.6897 72.888 74.279 72.0667 73.7217 71.128C72.783 69.6027 72.079 68.2973 71.6097 67.212C71.1697 66.0973 70.9497 64.8947 70.9497 63.604C70.9497 62.8413 71.0377 62.0493 71.2137 61.228L71.4777 59.776C71.8004 58.1333 72.475 56.872 73.5017 55.992C74.5284 55.0827 75.863 54.628 77.5057 54.628C79.0897 54.628 80.4244 55.0827 81.5097 55.992C82.6244 56.872 83.1817 58.1333 83.1817 59.776C83.1817 60.3333 83.123 60.8907 83.0057 61.448L82.3457 64.396L77.8577 65.1L78.8697 60.348C78.899 60.2307 78.9137 60.0547 78.9137 59.82C78.9137 59.3507 78.767 58.9987 78.4737 58.764C78.2097 58.5293 77.8724 58.412 77.4617 58.412C76.611 58.412 76.083 58.8813 75.8777 59.82L75.5257 61.536C75.4084 62.1227 75.3497 62.7387 75.3497 63.384C75.3497 64.2347 75.467 65.012 75.7017 65.716C75.9657 66.3907 76.3764 67.2267 76.9337 68.224C77.9017 69.8373 78.6057 71.2013 79.0457 72.316C79.515 73.4307 79.7497 74.648 79.7497 75.968C79.7497 76.7013 79.6617 77.4933 79.4857 78.344L78.8257 81.38C78.4444 83.052 77.7404 84.3427 76.7137 85.252C75.7164 86.132 74.3964 86.572 72.7537 86.572ZM96.4405 86H85.5285L92.0845 55.2H102.864L101.764 60.26H96.9245L95.5165 66.992H99.1245L98.0245 72.052H94.4165L92.5245 80.94H97.4965L96.4405 86ZM107.397 86H101.721L107.177 60.26H103.173L104.273 55.2H117.957L116.857 60.26H112.853L107.397 86ZM119.011 86H113.071L119.627 55.2H131.199L130.099 60.26H124.467L123.059 66.992H126.579L125.479 72.052H122.003L119.011 86ZM133.875 86.66C131.968 86.66 130.384 86.1467 129.123 85.12C127.862 84.0933 127.231 82.612 127.231 80.676C127.231 80.148 127.304 79.488 127.451 78.696L128.243 75L134.359 74.12L133.083 80.104C133.054 80.2213 133.039 80.3827 133.039 80.588C133.039 81.2627 133.362 81.6 134.007 81.6C134.564 81.6 134.931 81.248 135.107 80.544L135.767 77.42C135.884 76.9213 135.943 76.3933 135.943 75.836C135.943 75.1027 135.811 74.4573 135.547 73.9C135.312 73.3427 134.887 72.58 134.271 71.612C133.098 69.852 132.247 68.4147 131.719 67.3C131.22 66.156 130.971 64.924 130.971 63.604C130.971 62.7827 131.044 62.064 131.191 61.448L131.367 60.612C131.778 58.676 132.57 57.18 133.743 56.124C134.946 55.068 136.515 54.54 138.451 54.54C140.328 54.54 141.898 55.0533 143.159 56.08C144.42 57.1067 145.051 58.5733 145.051 60.48C145.051 61.2133 144.978 61.8733 144.831 62.46L144.435 64.22L138.407 65.1L139.243 61.008C139.272 60.92 139.287 60.788 139.287 60.612C139.287 59.9373 138.979 59.6 138.363 59.6C137.806 59.6 137.454 59.952 137.307 60.656L137.043 61.888C136.926 62.3573 136.867 62.8267 136.867 63.296C136.867 64.0293 136.999 64.704 137.263 65.32C137.527 65.9067 137.952 66.6987 138.539 67.696C139.712 69.6027 140.548 71.128 141.047 72.272C141.546 73.416 141.795 74.648 141.795 75.968C141.795 76.672 141.707 77.4493 141.531 78.3L141.003 80.632C140.563 82.568 139.742 84.064 138.539 85.12C137.366 86.1467 135.811 86.66 133.875 86.66ZM153.558 86H147.618L154.174 55.2H160.114L157.606 67.036H159.718L162.226 55.2H168.166L161.61 86H155.67L158.618 72.096H156.506L153.558 86ZM169.007 86H162.891L172.967 55.2H180.799L177.851 86H171.735L173.011 78.52H170.899L169.007 86ZM174.947 63.472L172.087 73.548H173.979L175.343 63.472H174.947ZM186.64 86.66C184.734 86.66 183.15 86.1467 181.888 85.12C180.627 84.0933 179.996 82.612 179.996 80.676C179.996 80.148 180.07 79.488 180.216 78.696L181.008 75L187.124 74.12L185.848 80.104C185.819 80.2213 185.804 80.3827 185.804 80.588C185.804 81.2627 186.127 81.6 186.772 81.6C187.33 81.6 187.696 81.248 187.872 80.544L188.532 77.42C188.65 76.9213 188.708 76.3933 188.708 75.836C188.708 75.1027 188.576 74.4573 188.312 73.9C188.078 73.3427 187.652 72.58 187.036 71.612C185.863 69.852 185.012 68.4147 184.484 67.3C183.986 66.156 183.736 64.924 183.736 63.604C183.736 62.7827 183.81 62.064 183.956 61.448L184.132 60.612C184.543 58.676 185.335 57.18 186.508 56.124C187.711 55.068 189.28 54.54 191.216 54.54C193.094 54.54 194.663 55.0533 195.924 56.08C197.186 57.1067 197.816 58.5733 197.816 60.48C197.816 61.2133 197.743 61.8733 197.596 62.46L197.2 64.22L191.172 65.1L192.008 61.008C192.038 60.92 192.052 60.788 192.052 60.612C192.052 59.9373 191.744 59.6 191.128 59.6C190.571 59.6 190.219 59.952 190.072 60.656L189.808 61.888C189.691 62.3573 189.632 62.8267 189.632 63.296C189.632 64.0293 189.764 64.704 190.028 65.32C190.292 65.9067 190.718 66.6987 191.304 67.696C192.478 69.6027 193.314 71.128 193.812 72.272C194.311 73.416 194.56 74.648 194.56 75.968C194.56 76.672 194.472 77.4493 194.296 78.3L193.768 80.632C193.328 82.568 192.507 84.064 191.304 85.12C190.131 86.1467 188.576 86.66 186.64 86.66ZM200.222 86H194.282L200.838 55.2H206.778L204.27 67.036H206.382L208.89 55.2H214.83L208.274 86H202.334L205.282 72.096H203.17L200.222 86ZM216.86 62.108C216.537 62.2253 216.112 62.328 215.584 62.416L216.64 57.356C218.194 57.004 219.441 56.2853 220.38 55.2H224.296L217.74 86H211.8L216.86 62.108ZM226.313 62.108C225.99 62.2253 225.565 62.328 225.037 62.416L226.093 57.356C227.647 57.004 228.894 56.2853 229.833 55.2H233.749L227.193 86H221.253L226.313 62.108ZM246.273 86H235.361L241.917 55.2H252.697L251.597 60.26H246.757L245.349 66.992H248.957L247.857 72.052H244.249L242.357 80.94H247.329L246.273 86ZM253.923 86L260.479 55.2H267.431C269.103 55.2 270.423 55.6547 271.391 56.564C272.359 57.4733 272.843 58.808 272.843 60.568C272.843 61.1253 272.77 61.844 272.623 62.724L272.139 65.276C271.875 66.7427 271.479 67.784 270.951 68.4C270.452 68.9867 269.704 69.412 268.707 69.676L268.663 69.94C269.308 70.292 269.778 70.7173 270.071 71.216C270.364 71.7147 270.511 72.3307 270.511 73.064C270.511 73.6213 270.423 74.2813 270.247 75.044L269.015 80.808C268.604 82.7147 267.9 84.064 266.903 84.856C265.935 85.6187 264.542 86 262.723 86H253.923ZM264.791 67.344C265.172 67.344 265.451 67.2707 265.627 67.124C265.832 66.948 265.979 66.6693 266.067 66.288L267.035 61.756C267.064 61.6387 267.079 61.4773 267.079 61.272C267.079 60.5973 266.756 60.26 266.111 60.26H265.319L263.823 67.344H264.791ZM261.975 80.94C262.356 80.94 262.635 80.8667 262.811 80.72C263.016 80.544 263.163 80.2653 263.251 79.884L264.703 73.24C264.732 73.1227 264.747 72.9613 264.747 72.756C264.747 72.0813 264.424 71.744 263.779 71.744H262.899L260.963 80.94H261.975ZM275.765 86H269.693L276.249 55.2H282.321L275.765 86ZM287.135 86H281.459L286.915 60.26H282.911L284.011 55.2H297.695L296.595 60.26H292.591L287.135 86ZM298.75 86H292.81L299.366 55.2H305.306L302.798 67.036H304.91L307.418 55.2H313.358L306.802 86H300.862L303.81 72.096H301.698L298.75 86ZM315.387 62.108C315.064 62.2253 314.639 62.328 314.111 62.416L315.167 57.356C316.722 57.004 317.968 56.2853 318.907 55.2H322.823L316.267 86H310.327L315.387 62.108ZM324.84 62.108C324.517 62.2253 324.092 62.328 323.564 62.416L324.62 57.356C326.175 57.004 327.421 56.2853 328.36 55.2H332.276L325.72 86H319.78L324.84 62.108Z" fill="#00FB79"/>
</svg>
