<svg width="754" height="175" viewBox="0 0 754 175" fill="none" xmlns="http://www.w3.org/2000/svg">
<path d="M14.9 84H5.3L18.3 22.6H9.2L11.1 14H38.9L37.1 22.6H28L14.9 84ZM50.5805 84H28.2805L43.1805 14H65.1805L63.2805 22.6H51.2805L47.2805 42.1H56.2805L54.4805 50.7H45.3805L40.0805 75.4H52.4805L50.5805 84ZM63.6383 84H55.0383L69.9383 14H79.6383L80.9383 37.8L81.2383 48.8H82.0383L84.3383 34.5L88.9383 14H97.4383L82.5383 84H79.3383L75.3383 45.5L74.4383 34H73.6383L71.1383 48.9L63.6383 84ZM98.925 84H88.925L103.825 14H113.825L107.825 42.2H115.125L121.125 14H131.125L116.225 84H106.225L113.325 50.8H106.025L98.925 84ZM130.416 84H120.216L143.216 14H156.116L149.516 84H139.316L141.916 67H135.016L130.416 84ZM145.916 30.1L137.216 58.5H143.316L146.816 30.1H145.916ZM188.471 84H166.171L181.071 14H203.071L201.171 22.6H189.171L185.171 42.1H194.171L192.371 50.7H183.271L177.971 75.4H190.371L188.471 84ZM201.515 84H191.215L206.315 46.5V14H216.515L215.415 35.4L214.915 41.3H215.715L217.415 35.4L225.915 14H236.215L221.815 47.5L221.515 84H211.315L213.015 58.5L213.615 52.3H212.715L210.915 58.5L201.515 84ZM225.546 84L240.446 14H253.346C256.679 14 259.379 14.9667 261.446 16.9C263.579 18.7667 264.646 21.5 264.646 25.1C264.646 26.2333 264.479 27.7 264.146 29.5L260.246 47.6C259.446 51.3333 258.046 54.0333 256.046 55.7C254.046 57.3667 251.246 58.2 247.646 58.2H241.046L235.546 84H225.546ZM246.646 49.6C248.846 49.6 250.146 48.5 250.546 46.3L254.546 27.6C254.679 26.8 254.746 26.2667 254.746 26C254.746 24.8667 254.413 24.0333 253.746 23.5C253.146 22.9 252.346 22.6 251.346 22.6H248.546L242.946 49.6H246.646ZM272.87 85.3C269.137 85.3 266.004 84.2667 263.47 82.2C261.004 80.1333 259.77 77.2 259.77 73.4C259.77 72 259.904 70.7333 260.17 69.6L269.77 24.5C270.57 20.7 272.137 17.8 274.47 15.8C276.804 13.7333 279.837 12.7 283.57 12.7C287.237 12.7 290.304 13.7333 292.77 15.8C295.304 17.8667 296.57 20.7667 296.57 24.5C296.57 25.8333 296.437 27.1333 296.17 28.4L286.67 73.5C285.804 77.3 284.204 80.2333 281.87 82.3C279.604 84.3 276.604 85.3 272.87 85.3ZM272.97 76.7C274.904 76.7 276.137 75.6 276.67 73.4L286.77 26C286.837 25.7333 286.87 25.3333 286.87 24.8C286.87 23.6667 286.537 22.8 285.87 22.2C285.27 21.6 284.47 21.3 283.47 21.3C281.47 21.3 280.204 22.4 279.67 24.6L269.67 72C269.537 72.6667 269.47 73.1 269.47 73.3C269.47 74.3667 269.804 75.2 270.47 75.8C271.137 76.4 271.97 76.7 272.97 76.7ZM304.702 85.3C300.968 85.3 297.835 84.2667 295.302 82.2C292.835 80.1333 291.602 77.2 291.602 73.4C291.602 72 291.735 70.7333 292.002 69.6L294.302 58.6L304.602 57L301.502 72C301.368 72.6667 301.302 73.1 301.302 73.3C301.302 74.3667 301.635 75.2 302.302 75.8C302.968 76.4 303.802 76.7 304.802 76.7C306.802 76.7 308.068 75.6 308.602 73.4L310.202 65.4C310.535 63.6 310.702 62.1667 310.702 61.1C310.702 59.1667 310.368 57.4 309.702 55.8C309.102 54.2 308.168 52.3333 306.902 50.2C304.768 46.7333 303.168 43.7667 302.102 41.3C301.102 38.7667 300.602 36.0333 300.602 33.1C300.602 31.3667 300.802 29.5667 301.202 27.7L301.802 24.4C302.535 20.6667 304.068 17.8 306.402 15.8C308.735 13.7333 311.768 12.7 315.502 12.7C319.102 12.7 322.135 13.7333 324.602 15.8C327.135 17.8 328.402 20.6667 328.402 24.4C328.402 25.6667 328.268 26.9333 328.002 28.2L326.502 34.9L316.302 36.5L318.602 25.7C318.668 25.4333 318.702 25.0333 318.702 24.5C318.702 23.4333 318.368 22.6333 317.702 22.1C317.102 21.5667 316.335 21.3 315.402 21.3C313.468 21.3 312.268 22.3667 311.802 24.5L311.002 28.4C310.735 29.7333 310.602 31.1333 310.602 32.6C310.602 34.5333 310.868 36.3 311.402 37.9C312.002 39.4333 312.935 41.3333 314.202 43.6C316.402 47.2667 318.002 50.3667 319.002 52.9C320.068 55.4333 320.602 58.2 320.602 61.2C320.602 62.8667 320.402 64.6667 320.002 66.6L318.502 73.5C317.635 77.3 316.035 80.2333 313.702 82.3C311.435 84.3 308.435 85.3 304.702 85.3ZM331.449 84H321.249L336.149 14H346.349L331.449 84ZM363.451 12.7C367.051 12.7 370.084 13.7333 372.551 15.8C375.017 17.8 376.251 20.6667 376.251 24.4C376.251 25.8 376.117 27.0667 375.851 28.2L373.951 37.5L363.651 39L366.451 25.7L366.651 24.5C366.651 23.4333 366.317 22.6333 365.651 22.1C365.051 21.5667 364.284 21.3 363.351 21.3C361.417 21.3 360.217 22.3667 359.751 24.5L349.651 72C349.517 72.6667 349.451 73.1 349.451 73.3C349.451 74.3667 349.784 75.2 350.451 75.8C351.117 76.4 351.951 76.7 352.951 76.7C354.884 76.7 356.117 75.6 356.651 73.4L360.651 54.3L370.251 56.5L366.551 73.5C365.751 77.3 364.184 80.2333 361.851 82.3C359.584 84.3 356.551 85.3 352.751 85.3H352.651L351.951 86.8C353.551 87.2 354.784 87.9333 355.651 89C356.584 90.0667 357.051 91.4 357.051 93C357.051 95.2 356.251 96.9 354.651 98.1C353.051 99.3 350.817 99.9 347.951 99.9C346.084 99.9 344.717 99.6333 343.851 99.1L342.951 93.9C344.084 94.5 345.484 94.8 347.151 94.8C349.617 94.8 350.851 94.1667 350.851 92.9C350.851 92.2333 350.417 91.7333 349.551 91.4C348.751 91.0667 347.251 90.9 345.051 90.9V90.1L347.851 84.6C345.451 83.8 343.484 82.4333 341.951 80.5C340.484 78.5667 339.751 76.1667 339.751 73.3C339.751 71.9667 339.884 70.7333 340.151 69.6L349.751 24.4C350.551 20.6 352.084 17.7 354.351 15.7C356.684 13.7 359.717 12.7 363.451 12.7ZM377.389 84H367.189L390.189 14H403.089L396.489 84H386.289L388.889 67H381.989L377.389 84ZM392.889 30.1L384.189 58.5H390.289L393.789 30.1H392.889ZM402.589 10.3C401.522 10.3 400.656 10.2 399.989 10C399.322 9.73333 398.456 9.33333 397.389 8.8C395.922 7.93333 394.489 7.5 393.089 7.5C391.956 7.5 390.922 7.76666 389.989 8.3C389.056 8.76666 388.289 9.33333 387.689 10L389.189 2.8C389.789 2.2 390.556 1.7 391.489 1.3C392.422 0.833329 393.456 0.599995 394.589 0.599995C395.589 0.599995 396.422 0.733329 397.089 0.999996C397.822 1.2 398.656 1.53333 399.589 1.99999C400.389 2.4 401.089 2.7 401.689 2.9C402.289 3.1 403.022 3.2 403.889 3.2C405.889 3.2 407.689 2.46666 409.289 0.999996L407.689 8.09999C406.356 9.56666 404.656 10.3 402.589 10.3ZM414.765 85.3C411.032 85.3 407.898 84.2667 405.365 82.2C402.898 80.1333 401.665 77.2 401.665 73.4C401.665 72 401.798 70.7333 402.065 69.6L411.665 24.5C412.465 20.7 414.032 17.8 416.365 15.8C418.698 13.7333 421.732 12.7 425.465 12.7C429.132 12.7 432.198 13.7333 434.665 15.8C437.198 17.8667 438.465 20.7667 438.465 24.5C438.465 25.8333 438.332 27.1333 438.065 28.4L428.565 73.5C427.698 77.3 426.098 80.2333 423.765 82.3C421.498 84.3 418.498 85.3 414.765 85.3ZM414.865 76.7C416.798 76.7 418.032 75.6 418.565 73.4L428.665 26C428.732 25.7333 428.765 25.3333 428.765 24.8C428.765 23.6667 428.432 22.8 427.765 22.2C427.165 21.6 426.365 21.3 425.365 21.3C423.365 21.3 422.098 22.4 421.565 24.6L411.565 72C411.432 72.6667 411.365 73.1 411.365 73.3C411.365 74.3667 411.698 75.2 412.365 75.8C413.032 76.4 413.865 76.7 414.865 76.7ZM466.987 84H444.687L459.587 14H481.587L479.687 22.6H467.687L463.687 42.1H472.687L470.887 50.7H461.787L456.487 75.4H468.887L466.987 84ZM479.845 84H471.245L487.645 14H499.145L496.845 42.2L495.345 56H496.145L500.445 42.2L510.045 14H521.545L508.145 84H499.645L506.145 49.6L509.245 36.4H508.445L504.045 49.6L491.645 84H488.045L490.145 49.6L491.345 36.4H490.445L488.045 49.6L479.845 84ZM542.009 85.3C538.342 85.3 535.242 84.2667 532.709 82.2C530.242 80.1333 529.009 77.2 529.009 73.4C529.009 72 529.142 70.7333 529.409 69.6L539.009 24.4C539.809 20.6 541.342 17.7 543.609 15.7C545.942 13.7 548.975 12.7 552.709 12.7C556.309 12.7 559.342 13.7333 561.809 15.8C564.275 17.8 565.509 20.6667 565.509 24.4C565.509 25.8 565.375 27.0667 565.109 28.2L563.209 37.5L552.909 39L555.709 25.7L555.909 24.5C555.909 23.4333 555.575 22.6333 554.909 22.1C554.309 21.5667 553.542 21.3 552.609 21.3C550.675 21.3 549.475 22.3667 549.009 24.5L538.909 72C538.775 72.6667 538.709 73.1 538.709 73.3C538.709 74.3667 539.042 75.2 539.709 75.8C540.375 76.4 541.209 76.7 542.209 76.7C544.142 76.7 545.375 75.6 545.909 73.4L549.909 54.3L559.509 56.5L555.809 73.5C555.009 77.3 553.442 80.2333 551.109 82.3C548.842 84.3 545.809 85.3 542.009 85.3ZM558.749 84L573.649 14H586.549C589.883 14 592.583 14.9667 594.649 16.9C596.783 18.7667 597.849 21.5 597.849 25.1C597.849 26.2333 597.683 27.7 597.349 29.5L594.449 43.2C593.383 48.3333 591.016 51.5333 587.349 52.8L586.549 84H576.649L578.049 53.8H575.249L568.749 84H558.749ZM580.849 45.1C581.983 45.1 582.849 44.8333 583.449 44.3C584.049 43.7667 584.483 42.9667 584.749 41.9L587.749 27.6C587.883 26.8 587.949 26.2667 587.949 26C587.949 24.8667 587.616 24.0333 586.949 23.5C586.349 22.9 585.549 22.6 584.549 22.6H581.749L577.149 45.1H580.849ZM601.371 84H591.171L606.071 14H616.271L601.371 84ZM607.773 84L622.673 14H635.573C638.906 14 641.606 14.9667 643.673 16.9C645.806 18.7667 646.873 21.5 646.873 25.1C646.873 26.2333 646.706 27.7 646.373 29.5L642.473 47.6C641.673 51.3333 640.273 54.0333 638.273 55.7C636.273 57.3667 633.473 58.2 629.873 58.2H623.273L617.773 84H607.773ZM628.873 49.6C631.073 49.6 632.373 48.5 632.773 46.3L636.773 27.6C636.906 26.8 636.973 26.2667 636.973 26C636.973 24.8667 636.639 24.0333 635.973 23.5C635.373 22.9 634.573 22.6 633.573 22.6H630.773L625.173 49.6H628.873ZM655.232 84H645.632L658.632 22.6H649.532L651.432 14H679.232L677.432 22.6H668.332L655.232 84ZM682.734 85.3C679 85.3 675.867 84.2667 673.334 82.2C670.867 80.1333 669.634 77.2 669.634 73.4C669.634 72 669.767 70.7333 670.034 69.6L679.634 24.5C680.434 20.7 682 17.8 684.334 15.8C686.667 13.7333 689.7 12.7 693.434 12.7C697.1 12.7 700.167 13.7333 702.634 15.8C705.167 17.8667 706.434 20.7667 706.434 24.5C706.434 25.8333 706.3 27.1333 706.034 28.4L696.534 73.5C695.667 77.3 694.067 80.2333 691.734 82.3C689.467 84.3 686.467 85.3 682.734 85.3ZM682.834 76.7C684.767 76.7 686 75.6 686.534 73.4L696.634 26C696.7 25.7333 696.734 25.3333 696.734 24.8C696.734 23.6667 696.4 22.8 695.734 22.2C695.134 21.6 694.334 21.3 693.334 21.3C691.334 21.3 690.067 22.4 689.534 24.6L679.534 72C679.4 72.6667 679.334 73.1 679.334 73.3C679.334 74.3667 679.667 75.2 680.334 75.8C681 76.4 681.834 76.7 682.834 76.7ZM13.2 174.3C9.53333 174.3 6.43333 173.267 3.9 171.2C1.43333 169.133 0.2 166.2 0.2 162.4C0.2 161 0.333333 159.733 0.6 158.6L10.2 113.4C11 109.6 12.5333 106.7 14.8 104.7C17.1333 102.7 20.1667 101.7 23.9 101.7C27.5 101.7 30.5333 102.733 33 104.8C35.4667 106.8 36.7 109.667 36.7 113.4C36.7 114.8 36.5667 116.067 36.3 117.2L34.4 126.5L24.1 128L26.9 114.7L27.1 113.5C27.1 112.433 26.7667 111.633 26.1 111.1C25.5 110.567 24.7333 110.3 23.8 110.3C21.8667 110.3 20.6667 111.367 20.2 113.5L10.1 161C9.96667 161.667 9.9 162.1 9.9 162.3C9.9 163.367 10.2333 164.2 10.9 164.8C11.5667 165.4 12.4 165.7 13.4 165.7C15.3333 165.7 16.5667 164.6 17.1 162.4L21.1 143.3L30.7 145.5L27 162.5C26.2 166.3 24.6333 169.233 22.3 171.3C20.0333 173.3 17 174.3 13.2 174.3ZM45.0383 174.3C41.3049 174.3 38.1716 173.267 35.6383 171.2C33.1716 169.133 31.9383 166.2 31.9383 162.4C31.9383 161 32.0716 159.733 32.3383 158.6L41.9383 113.5C42.7383 109.7 44.3049 106.8 46.6383 104.8C48.9716 102.733 52.0049 101.7 55.7383 101.7C59.4049 101.7 62.4716 102.733 64.9383 104.8C67.4716 106.867 68.7383 109.767 68.7383 113.5C68.7383 114.833 68.6049 116.133 68.3383 117.4L58.8383 162.5C57.9716 166.3 56.3716 169.233 54.0383 171.3C51.7716 173.3 48.7716 174.3 45.0383 174.3ZM45.1383 165.7C47.0716 165.7 48.3049 164.6 48.8383 162.4L58.9383 115C59.0049 114.733 59.0383 114.333 59.0383 113.8C59.0383 112.667 58.7049 111.8 58.0383 111.2C57.4383 110.6 56.6383 110.3 55.6383 110.3C53.6383 110.3 52.3716 111.4 51.8383 113.6L41.8383 161C41.7049 161.667 41.6383 162.1 41.6383 162.3C41.6383 163.367 41.9716 164.2 42.6383 164.8C43.3049 165.4 44.1383 165.7 45.1383 165.7ZM69.9813 173H61.3812L77.7813 103H89.2812L86.9813 131.2L85.4813 145H86.2813L90.5813 131.2L100.181 103H111.681L98.2813 173H89.7813L96.2813 138.6L99.3813 125.4H98.5813L94.1813 138.6L81.7813 173H78.1813L80.2813 138.6L81.4813 125.4H80.5813L78.1813 138.6L69.9813 173ZM132.245 174.3C128.512 174.3 125.379 173.267 122.845 171.2C120.379 169.133 119.145 166.2 119.145 162.4C119.145 161 119.279 159.733 119.545 158.6L129.145 113.5C129.945 109.7 131.512 106.8 133.845 104.8C136.179 102.733 139.212 101.7 142.945 101.7C146.612 101.7 149.679 102.733 152.145 104.8C154.679 106.867 155.945 109.767 155.945 113.5C155.945 114.833 155.812 116.133 155.545 117.4L146.045 162.5C145.179 166.3 143.579 169.233 141.245 171.3C138.979 173.3 135.979 174.3 132.245 174.3ZM132.345 165.7C134.279 165.7 135.512 164.6 136.045 162.4L146.145 115C146.212 114.733 146.245 114.333 146.245 113.8C146.245 112.667 145.912 111.8 145.245 111.2C144.645 110.6 143.845 110.3 142.845 110.3C140.845 110.3 139.579 111.4 139.045 113.6L129.045 161C128.912 161.667 128.845 162.1 128.845 162.3C128.845 163.367 129.179 164.2 129.845 164.8C130.512 165.4 131.345 165.7 132.345 165.7ZM164.077 174.3C160.343 174.3 157.21 173.267 154.677 171.2C152.21 169.133 150.977 166.2 150.977 162.4C150.977 161 151.11 159.733 151.377 158.6L153.677 147.6L163.977 146L160.877 161C160.743 161.667 160.677 162.1 160.677 162.3C160.677 163.367 161.01 164.2 161.677 164.8C162.343 165.4 163.177 165.7 164.177 165.7C166.177 165.7 167.443 164.6 167.977 162.4L169.577 154.4C169.91 152.6 170.077 151.167 170.077 150.1C170.077 148.167 169.743 146.4 169.077 144.8C168.477 143.2 167.543 141.333 166.277 139.2C164.143 135.733 162.543 132.767 161.477 130.3C160.477 127.767 159.977 125.033 159.977 122.1C159.977 120.367 160.177 118.567 160.577 116.7L161.177 113.4C161.91 109.667 163.443 106.8 165.777 104.8C168.11 102.733 171.143 101.7 174.877 101.7C178.477 101.7 181.51 102.733 183.977 104.8C186.51 106.8 187.777 109.667 187.777 113.4C187.777 114.667 187.643 115.933 187.377 117.2L185.877 123.9L175.677 125.5L177.977 114.7C178.043 114.433 178.077 114.033 178.077 113.5C178.077 112.433 177.743 111.633 177.077 111.1C176.477 110.567 175.71 110.3 174.777 110.3C172.843 110.3 171.643 111.367 171.177 113.5L170.377 117.4C170.11 118.733 169.977 120.133 169.977 121.6C169.977 123.533 170.243 125.3 170.777 126.9C171.377 128.433 172.31 130.333 173.577 132.6C175.777 136.267 177.377 139.367 178.377 141.9C179.443 144.433 179.977 147.2 179.977 150.2C179.977 151.867 179.777 153.667 179.377 155.6L177.877 162.5C177.01 166.3 175.41 169.233 173.077 171.3C170.81 173.3 167.81 174.3 164.077 174.3ZM217.91 173H193.11L208.01 103H232.51L230.01 114.5H219.01L215.81 129.8H224.01L221.51 141.3H213.31L209.01 161.5H220.31L217.91 173ZM242.812 173H229.912L242.312 114.5H233.212L235.712 103H266.812L264.312 114.5H255.212L242.812 173ZM269.208 173H255.708L270.608 103H296.908L294.408 114.5H281.608L278.408 129.8H286.408L283.908 141.3H276.008L269.208 173ZM302.988 174.5C298.655 174.5 295.055 173.333 292.188 171C289.322 168.667 287.888 165.3 287.888 160.9C287.888 159.7 288.055 158.2 288.388 156.4L290.188 148L304.088 146L301.188 159.6C301.122 159.867 301.088 160.233 301.088 160.7C301.088 162.233 301.822 163 303.288 163C304.555 163 305.388 162.2 305.788 160.6L307.288 153.5C307.555 152.367 307.688 151.167 307.688 149.9C307.688 148.233 307.388 146.767 306.788 145.5C306.255 144.233 305.288 142.5 303.888 140.3C301.222 136.3 299.288 133.033 298.088 130.5C296.955 127.9 296.388 125.1 296.388 122.1C296.388 120.233 296.555 118.6 296.888 117.2L297.288 115.3C298.222 110.9 300.022 107.5 302.688 105.1C305.422 102.7 308.988 101.5 313.388 101.5C317.655 101.5 321.222 102.667 324.088 105C326.955 107.333 328.388 110.667 328.388 115C328.388 116.667 328.222 118.167 327.888 119.5L326.988 123.5L313.288 125.5L315.188 116.2C315.255 116 315.288 115.7 315.288 115.3C315.288 113.767 314.588 113 313.188 113C311.922 113 311.122 113.8 310.788 115.4L310.188 118.2C309.922 119.267 309.788 120.333 309.788 121.4C309.788 123.067 310.088 124.6 310.688 126C311.288 127.333 312.255 129.133 313.588 131.4C316.255 135.733 318.155 139.2 319.288 141.8C320.422 144.4 320.988 147.2 320.988 150.2C320.988 151.8 320.788 153.567 320.388 155.5L319.188 160.8C318.188 165.2 316.322 168.6 313.588 171C310.922 173.333 307.388 174.5 302.988 174.5ZM347.723 173H334.223L349.123 103H362.623L356.923 129.9H361.723L367.423 103H380.923L366.023 173H352.523L359.223 141.4H354.423L347.723 173ZM382.835 173H368.935L391.835 103H409.635L402.935 173H389.035L391.935 156H387.135L382.835 173ZM396.335 121.8L389.835 144.7H394.135L397.235 121.8H396.335ZM422.91 174.5C418.577 174.5 414.977 173.333 412.11 171C409.243 168.667 407.81 165.3 407.81 160.9C407.81 159.7 407.977 158.2 408.31 156.4L410.11 148L424.01 146L421.11 159.6C421.043 159.867 421.01 160.233 421.01 160.7C421.01 162.233 421.743 163 423.21 163C424.477 163 425.31 162.2 425.71 160.6L427.21 153.5C427.477 152.367 427.61 151.167 427.61 149.9C427.61 148.233 427.31 146.767 426.71 145.5C426.177 144.233 425.21 142.5 423.81 140.3C421.143 136.3 419.21 133.033 418.01 130.5C416.877 127.9 416.31 125.1 416.31 122.1C416.31 120.233 416.477 118.6 416.81 117.2L417.21 115.3C418.143 110.9 419.943 107.5 422.61 105.1C425.343 102.7 428.91 101.5 433.31 101.5C437.577 101.5 441.143 102.667 444.01 105C446.877 107.333 448.31 110.667 448.31 115C448.31 116.667 448.143 118.167 447.81 119.5L446.91 123.5L433.21 125.5L435.11 116.2C435.177 116 435.21 115.7 435.21 115.3C435.21 113.767 434.51 113 433.11 113C431.843 113 431.043 113.8 430.71 115.4L430.11 118.2C429.843 119.267 429.71 120.333 429.71 121.4C429.71 123.067 430.01 124.6 430.61 126C431.21 127.333 432.177 129.133 433.51 131.4C436.177 135.733 438.077 139.2 439.21 141.8C440.343 144.4 440.91 147.2 440.91 150.2C440.91 151.8 440.71 153.567 440.31 155.5L439.11 160.8C438.11 165.2 436.243 168.6 433.51 171C430.843 173.333 427.31 174.5 422.91 174.5ZM453.778 173H440.278L455.178 103H468.678L462.978 129.9H467.778L473.478 103H486.978L472.078 173H458.578L465.278 141.4H460.478L453.778 173ZM491.59 118.7C490.857 118.967 489.89 119.2 488.69 119.4L491.09 107.9C494.623 107.1 497.457 105.467 499.59 103H508.49L493.59 173H480.09L491.59 118.7ZM513.074 118.7C512.341 118.967 511.374 119.2 510.174 119.4L512.574 107.9C516.108 107.1 518.941 105.467 521.074 103H529.974L515.074 173H501.574L513.074 118.7ZM558.438 173H533.638L548.538 103H573.038L570.538 114.5H559.538L556.338 129.8H564.538L562.038 141.3H553.838L549.538 161.5H560.838L558.438 173ZM575.825 173L590.725 103H606.525C610.325 103 613.325 104.033 615.525 106.1C617.725 108.167 618.825 111.2 618.825 115.2C618.825 116.467 618.658 118.1 618.325 120.1L617.225 125.9C616.625 129.233 615.725 131.6 614.525 133C613.392 134.333 611.692 135.3 609.425 135.9L609.325 136.5C610.792 137.3 611.858 138.267 612.525 139.4C613.192 140.533 613.525 141.933 613.525 143.6C613.525 144.867 613.325 146.367 612.925 148.1L610.125 161.2C609.192 165.533 607.592 168.6 605.325 170.4C603.125 172.133 599.958 173 595.825 173H575.825ZM600.525 130.6C601.392 130.6 602.025 130.433 602.425 130.1C602.892 129.7 603.225 129.067 603.425 128.2L605.625 117.9C605.692 117.633 605.725 117.267 605.725 116.8C605.725 115.267 604.992 114.5 603.525 114.5H601.725L598.325 130.6H600.525ZM594.125 161.5C594.992 161.5 595.625 161.333 596.025 161C596.492 160.6 596.825 159.967 597.025 159.1L600.325 144C600.392 143.733 600.425 143.367 600.425 142.9C600.425 141.367 599.692 140.6 598.225 140.6H596.225L591.825 161.5H594.125ZM625.465 173H611.665L626.565 103H640.365L625.465 173ZM651.308 173H638.408L650.808 114.5H641.708L644.208 103H675.308L672.808 114.5H663.708L651.308 173ZM677.704 173H664.204L679.104 103H692.604L686.904 129.9H691.704L697.404 103H710.904L696.004 173H682.504L689.204 141.4H684.404L677.704 173ZM715.516 118.7C714.782 118.967 713.816 119.2 712.616 119.4L715.016 107.9C718.549 107.1 721.382 105.467 723.516 103H732.416L717.516 173H704.016L715.516 118.7ZM737 118.7C736.267 118.967 735.3 119.2 734.1 119.4L736.5 107.9C740.033 107.1 742.867 105.467 745 103H753.9L739 173H725.5L737 118.7Z" fill="#00FB79"/>
</svg>
