<svg width="54" height="54" viewBox="0 0 54 54" fill="none" xmlns="http://www.w3.org/2000/svg">
<rect width="54" height="54" rx="10" fill="#F5F5F7"/>
<circle cx="27.4282" cy="27.4286" r="18" fill="white"/>
<path d="M37.9482 32.386L33.5868 28.887V30.9957H30.4676C31.0352 30.242 31.4422 29.3795 31.6633 28.4617L32.8947 28.1428V25.5232L31.6649 25.2122C31.496 24.5068 31.2163 23.8328 30.8363 23.2154L31.488 22.1206L29.6382 20.2669L28.5457 20.9193C27.9295 20.5388 27.257 20.2585 26.5532 20.0888L26.2428 18.8572H23.628L23.3177 20.0888C22.6139 20.2584 21.9414 20.5387 21.3252 20.9193L20.2327 20.2669L18.3829 22.1198L19.0347 23.2146C18.6552 23.8323 18.3756 24.5062 18.206 25.2114L16.9778 25.5224V28.1428L18.2068 28.4538C18.4288 29.3734 18.8377 30.2371 19.4079 30.991H16.2856V33.7654H33.5884V35.8741L37.9482 32.386ZM16.9754 33.0796V31.6924H20.0077C20.5684 32.2618 21.222 32.7309 21.9405 33.0796H16.9754ZM24.9347 33.0796C23.5036 33.0759 22.1171 32.5802 21.0068 31.6753C19.8965 30.7704 19.1297 29.5112 18.8345 28.1078L18.791 27.8956L17.6668 27.6078V26.066L18.7903 25.7814L18.8345 25.5683C18.9933 24.7998 19.2967 24.0686 19.7283 23.4137L19.8471 23.2325L19.2519 22.2318L20.3382 21.1432L21.3368 21.7404L21.5184 21.6214C22.1718 21.1888 22.9015 20.8848 23.6684 20.7257L23.881 20.6813L24.1657 19.5554H25.7028L25.9868 20.6813L26.1994 20.7249C26.9662 20.8842 27.6959 21.1882 28.3494 21.6206L28.5302 21.7404L29.5296 21.1432L30.6159 22.2318L30.02 23.2325L30.1394 23.4137C30.5706 24.0689 30.8739 24.8 31.0333 25.5683L31.0767 25.7814L32.2003 26.0667V27.6095L31.0752 27.901L31.0318 28.1125C30.8078 29.1871 30.3039 30.1832 29.5715 30.9996H27.4168C28.4192 30.3952 29.1689 29.4472 29.5271 28.3312C29.8853 27.2152 29.8277 26.007 29.3649 24.9303C28.902 23.8537 28.0655 22.9817 27.0102 22.4759C25.9549 21.9701 24.7524 21.8648 23.6255 22.1796C22.4987 22.4944 21.524 23.2079 20.8819 24.1878C20.2399 25.1677 19.9741 26.3477 20.1338 27.509C20.2935 28.6703 20.8679 29.7342 21.7505 30.5036C22.6331 31.273 23.7641 31.6956 24.9339 31.6932H34.2781V30.334L36.8387 32.3868L34.2781 34.4395V33.0804L24.9347 33.0796ZM24.9347 30.9988C24.1134 30.9987 23.3106 30.7545 22.6278 30.2971C21.945 29.8397 21.4129 29.1898 21.0987 28.4293C20.7845 27.6689 20.7024 26.8322 20.8627 26.0249C21.023 25.2177 21.4186 24.4763 21.9994 23.8944C22.5801 23.3125 23.3201 22.9162 24.1256 22.7557C24.9311 22.5952 25.7661 22.6776 26.5248 22.9926C27.2835 23.3076 27.932 23.841 28.3883 24.5254C28.8446 25.2097 29.0881 26.0143 29.0881 26.8373C29.0863 27.9404 28.648 28.9976 27.8693 29.7773C27.0908 30.557 26.0354 30.9954 24.9347 30.9964V30.9988Z" fill="black"/>
<path d="M22.364 25.8024L21.7208 25.545C21.6256 25.7837 21.5572 26.0322 21.5167 26.286L22.2003 26.3949C22.2327 26.1919 22.2876 25.9931 22.364 25.8024ZM22.1724 27.0107L21.481 27.0534C21.497 27.3103 21.5415 27.5646 21.6137 27.8116L22.2771 27.6164C22.2197 27.4191 22.1846 27.2159 22.1724 27.0107ZM21.9109 28.5207C22.0361 28.7452 22.1857 28.9552 22.357 29.1467L22.8722 28.684C22.7353 28.5306 22.6158 28.3624 22.5161 28.1825L21.9109 28.5207ZM25.972 26.8349C25.9715 26.6205 25.9046 26.4114 25.7807 26.2365C25.6567 26.0616 25.4818 25.9295 25.2799 25.8584V23.3702H24.5878V25.8584C24.3571 25.9399 24.1626 26.1006 24.0388 26.312C23.9151 26.5235 23.8699 26.772 23.9115 27.0136C23.953 27.2552 24.0785 27.4742 24.2658 27.632C24.4531 27.7897 24.69 27.8759 24.9346 27.8753C25.0887 27.8747 25.2407 27.8391 25.3792 27.7712L26.4197 28.8146L26.9085 28.324L25.8688 27.2805C25.936 27.1416 25.9712 26.9894 25.972 26.8349ZM24.9346 27.1817C24.8661 27.1819 24.7992 27.1617 24.7421 27.1237C24.6851 27.0857 24.6406 27.0315 24.6143 26.9683C24.588 26.9049 24.5811 26.8351 24.5943 26.7678C24.6076 26.7005 24.6405 26.6386 24.6888 26.59C24.7372 26.5415 24.7989 26.5083 24.866 26.4949C24.9332 26.4815 25.0028 26.4883 25.066 26.5145C25.1293 26.5407 25.1834 26.5852 25.2215 26.6422C25.2595 26.6993 25.2799 26.7664 25.2799 26.8349C25.2794 26.9265 25.2431 27.0143 25.1786 27.0792C25.1142 27.1441 25.026 27.181 24.9346 27.1817Z" fill="black"/>
</svg>
